<?xml version="1.0" encoding="UTF-8"?>
<svg id="Capa_2" data-name="Capa 2" xmlns="http://www.w3.org/2000/svg" viewBox="0 0 1784.19 279.57">
  <g id="Capa_1-2" data-name="Capa 1">
    <path d="M139.78,279.57c-13.56,0-26.31-5.28-35.9-14.87L14.85,175.67c-19.79-19.79-19.79-52,0-71.8L103.88,14.85c19.8-19.8,52-19.79,71.8,0l108.19,108.2L392.07,14.85c19.8-19.8,52-19.79,71.8,0l89.03,89.03c19.79,19.79,19.79,52,0,71.8l-89.03,89.03c-19.79,19.8-52.01,19.79-71.8,0l-108.2-108.2-108.19,108.2c-9.59,9.59-22.34,14.87-35.9,14.87Zm160.83-139.8l108.2,108.2c10.56,10.57,27.76,10.57,38.33,0l89.03-89.03c10.57-10.57,10.57-27.77,0-38.34L447.14,31.58c-10.56-10.56-27.76-10.57-38.33,0l-108.2,108.2ZM139.78,23.65c-6.94,0-13.88,2.64-19.16,7.93L31.58,120.61c-10.57,10.57-10.57,27.77,0,38.34l89.03,89.03c10.56,10.57,27.77,10.57,38.33,0l108.2-108.2L158.94,31.58c-5.28-5.28-12.22-7.93-19.17-7.93Z"/>
    <g>
      <g>
        <path d="M848.58,89.71c-2.14-7.48-6.64-11.27-13.38-11.27-5.92,0-10.77,3.4-13.31,9.32l-42.81,98.22-42.8-98.22c-2.47-5.75-7.8-9.33-13.91-9.33-7.32,0-11.82,3.7-13.78,11.29l-37.31,136.48h27.56l26.59-97.76,38.75,89.41c2.83,6.75,7.71,10.32,14.11,10.32s10.97-3.36,14.1-10.3l38.95-89.44,26.59,97.77h27.75l-37.12-136.49Z"/>
        <path d="M919.19,226.21V80.04h130.48v25.53h-105.15v95.1h105.35v25.53h-130.69Zm44.03-63.53v-21.51h81.03v21.51h-81.03Z"/>
        <path d="M1126.73,226.21V105.57h-55.49v-25.53h136.52v25.53h-55.49v120.63h-25.53Z"/>
        <path d="M1297.23,226.21c-40.81,0-70.97-32.17-70.97-74.59s30.16-71.58,70.97-71.58h35.59c42.22,0,71.58,29.15,71.58,71.58s-29.96,74.59-71.58,74.59h-35.59Zm35.59-25.53c26.94,0,46.04-20.31,46.04-47.85s-19.1-47.25-46.04-47.25h-35.59c-26.14,0-45.44,19.5-45.44,47.25s19.1,47.85,45.44,47.85h35.59Z"/>
        <path d="M1433.47,226.21V80.04h84.65c41.22,0,71.17,29.15,71.17,71.58s-29.96,74.59-71.17,74.59h-84.65Zm84.65-25.53c26.34,0,45.64-20.31,45.64-47.85s-19.3-47.25-45.64-47.25h-59.31v95.1h59.31Z"/>
        <path d="M1677.03,226.21c-40.81,0-70.97-32.17-70.97-74.59s30.16-71.58,70.97-71.58h35.59c42.22,0,71.57,29.15,71.57,71.58s-29.96,74.59-71.57,74.59h-35.59Zm35.59-25.53c26.94,0,46.04-20.31,46.04-47.85s-19.1-47.25-46.04-47.25h-35.59c-26.14,0-45.44,19.5-45.44,47.25s19.1,47.85,45.44,47.85h35.59Z"/>
      </g>
      <polygon points="1013.01 67.64 967.78 67.64 967.78 59.63 1013.01 51.4 1013.01 67.64"/>
    </g>
  </g>
</svg>